PathFileType	4	(x/y/z)	S10_M20_T58
DataRate	CameraRate	NumFrames	NumMarkers	Units	OrigDataRate	OrigDataStartFrame	OrigNumFrames
240	240	8	51	mm	240	337	538
Frame#	Time	Sternum			R.Acromium			L.Acromium			Top.Head			R.ASIS			L.ASIS			R.PSIS			L.PSIS			R.Great.Tro			L.Great.Tro			R.Iliac.Crest			L.Iliac.Crest			V.Sacral			R.Thigh.Upper.Post			R.Thigh.Lower.Ant			R.Thigh.Lower.Post			R.Thigh.Upper.Ant			R.Knee.Lat			R.Knee.Med			R.Shank.Upper.Post			R.Shank.Lower.Ant			R.Shank.Lower.Post			R.Shank.Upper.Ant			R.Ankle.Lat			R.Ankle.Med			R.Heel.Upper			R.Heel.Med			R.Heel.Lat			R.Toe.Lat			R.Toe.Med			R.Toe.Tip			L.Thigh.Upper.Post			L.Thigh.Lower.Ant			L.Thigh.Lower.Post			L.Thigh.Upper.Ant			L.Knee.Lat			L.Knee.Med			L.Shank.Upper.Post			L.Shank.Lower.Ant			L.Shank.Lower.Post			L.Shank.Upper.Ant			L.Ankle.Lat			L.Ankle.Med			L.Heel.Upper			L.Heel.Med			L.Heel.Lat			L.Toe.Lat			L.Toe.Med			L.Toe.Tip			Cervical.Spine			Back			
		X1	Y1	Z1	X2	Y2	Z2	X3	Y3	Z3	X4	Y4	Z4	X5	Y5	Z5	X6	Y6	Z6	X7	Y7	Z7	X8	Y8	Z8	X9	Y9	Z9	X10	Y10	Z10	X11	Y11	Z11	X12	Y12	Z12	X13	Y13	Z13	X14	Y14	Z14	X15	Y15	Z15	X16	Y16	Z16	X17	Y17	Z17	X18	Y18	Z18	X19	Y19	Z19	X20	Y20	Z20	X21	Y21	Z21	X22	Y22	Z22	X23	Y23	Z23	X24	Y24	Z24	X25	Y25	Z25	X26	Y26	Z26	X27	Y27	Z27	X28	Y28	Z28	X29	Y29	Z29	X30	Y30	Z30	X31	Y31	Z31	X32	Y32	Z32	X33	Y33	Z33	X34	Y34	Z34	X35	Y35	Z35	X36	Y36	Z36	X37	Y37	Z37	X38	Y38	Z38	X39	Y39	Z39	X40	Y40	Z40	X41	Y41	Z41	X42	Y42	Z42	X43	Y43	Z43	X44	Y44	Z44	X45	Y45	Z45	X46	Y46	Z46	X47	Y47	Z47	X48	Y48	Z48	X49	Y49	Z49	X50	Y50	Z50	X51	Y51	Z51	

337	1.4	983.23	1221.7	301.63	890.91	1384.9	456.33	843.72	1399.3	153.62	838.12	1697.8	325.16	921.94	949.65	425.3	937.41	972.94	194.71	729.62	977.86	326.8	738.38	984.81	245.07	828.98	882	493.2	881.32	915.18	131.76	827.94	1034.3	465.73	868.02	1047.5	162.95	711.25	947.69	287.93	763.6	686.08	482.09	785.23	593.46	443.74	721.71	608.62	466.75	830.1	671.71	457.09	660.58	496.52	425.98	662.04	504.78	299.07	492.18	330.38	424.94	519.26	244.6	403.27	457.33	265.47	417.44	560.6	309.72	412.47	420.52	159.67	392.06	431.24	167.56	313.11	340.71	134.69	345.79	338.86	105.91	318.99	336.21	111.3	380.41	492.68	44.555	424.06	521.01	40.734	316.57	579.71	44.703	356.92	955.31	642.99	127.65	1055.5	601.3	153.26	995.15	558.43	149	1022.3	683.73	132.8	1066.5	501.21	159.57	1073.6	497.9	290.62	1104	281.16	152.92	1203.9	234.35	166.78	1143.1	213.7	160.47	1165.7	300.88	159.36	1230.9	116.78	170.79	1237.5	134.15	256.43	1190.1	61.207	215.45	1213.5	39.331	250.83	1210.5	36.383	185.94	1367.7	109.3	150.77	1384.8	132.29	257.37	1425	170.55	211.43	792.98	1446.4	328.02	701.94	1240	322.71
338	1.4042	989.82	1221.2	300.97	897.3	1384.4	455.44	850.31	1398.6	152.77	843.77	1697.1	324.28	928.4	948.93	425.04	944.33	972.56	194.42	736.31	977.27	326.05	745.2	984.31	244.34	835.08	881.27	492.58	888.54	914.99	131.33	834.35	1033.6	465.25	874.95	1047	162.44	718.02	947.13	287.1	769.28	685.67	481.54	790.85	592.89	443.49	727.26	608.25	466.16	835.84	671.07	456.87	666.03	496.22	425.53	667.93	504.26	298.57	496.18	331.63	424.52	522.45	245.55	403.17	460.71	267.04	417.12	564.39	310.29	412.26	422.88	161.56	391.93	433.7	169.14	313.04	342.99	137.65	345.54	340.71	108.97	318.7	338.02	114.3	380.11	493.16	44.884	424.02	521.47	40.612	316.71	579.86	44.627	356.86	962.61	642.91	127.72	1062.7	601.15	153.73	1002.3	558.31	149.22	1029.6	683.59	133.12	1073.5	501.08	159.92	1080	497.64	290.89	1109.1	280.77	152.79	1208.5	232.94	167.09	1147.6	212.9	160.29	1171	299.87	159.85	1233.8	115.36	170.58	1240.6	132	256.55	1192	61.197	215.45	1214.8	38.58	250.63	1211.6	35.987	185.71	1370.1	105.07	150.65	1387.8	127.49	257.14	1428.9	164.96	211.33	799.37	1445.8	327.14	708.55	1239.3	321.99
339	1.4083	996.45	1220.7	300.3	903.7	1384	454.55	856.91	1398	151.92	849.43	1696.5	323.41	934.91	948.22	424.78	951.3	972.22	194.14	743.06	976.72	325.27	752.09	983.87	243.59	841.23	880.55	491.96	895.84	914.87	130.88	840.82	1032.9	464.77	881.96	1046.6	161.94	724.85	946.61	286.24	775.06	685.26	480.97	796.57	592.33	443.23	732.93	607.88	465.54	841.67	670.44	456.62	671.61	495.9	425.07	673.95	503.73	298.05	500.31	332.89	424.06	525.75	246.52	403.07	464.21	268.62	416.77	568.29	310.87	412.04	425.38	163.48	391.79	436.3	170.75	312.95	345.42	140.69	345.27	342.7	112.11	318.39	339.97	117.41	379.78	493.67	45.236	423.97	521.95	40.478	316.84	580.01	44.551	356.79	969.87	642.87	127.79	1069.9	601.02	154.17	1009.4	558.22	149.44	1036.9	683.47	133.44	1080.5	500.98	160.25	1086.3	497.4	291.14	1114.3	280.45	152.71	1213.1	231.63	167.4	1152	212.19	160.15	1176.4	298.95	160.35	1236.8	114.05	170.38	1243.7	129.98	256.69	1193.9	61.39	215.51	1216	38.029	250.47	1212.6	35.781	185.53	1372.5	100.83	150.54	1390.8	122.69	256.9	1432.8	159.3	211.2	805.78	1445.2	326.25	715.21	1238.6	321.26
340	1.4125	1003.1	1220.2	299.62	910.14	1383.6	453.66	863.51	1397.3	151.07	855.1	1695.9	322.53	941.47	947.55	424.53	958.31	971.94	193.86	749.86	976.21	324.47	759.04	983.49	242.84	847.45	879.84	491.32	903.2	914.82	130.41	847.33	1032.3	464.27	889.04	1046.2	161.45	731.73	946.14	285.35	780.92	684.86	480.37	802.41	591.77	442.96	738.7	607.49	464.91	847.61	669.83	456.35	677.32	495.57	424.59	680.1	503.17	297.52	504.57	334.17	423.58	529.19	247.51	402.96	467.85	270.23	416.4	572.33	311.45	411.8	428	165.44	391.63	439.03	172.38	312.86	348.03	143.82	344.96	344.83	115.35	318.04	342.06	120.62	379.42	494.21	45.611	423.91	522.43	40.336	316.97	580.15	44.474	356.71	977.08	642.88	127.86	1077	600.9	154.58	1016.4	558.17	149.64	1044.1	683.38	133.73	1087.5	500.91	160.55	1092.4	497.18	291.38	1119.4	280.19	152.69	1217.7	230.42	167.72	1156.5	211.56	160.07	1181.7	298.1	160.85	1239.7	112.85	170.21	1246.8	128.1	256.85	1195.8	61.768	215.61	1217.2	37.667	250.34	1213.6	35.754	185.39	1374.8	96.6	150.47	1393.8	117.9	256.66	1436.7	153.58	211.05	812.21	1444.7	325.36	721.91	1238	320.53
341	1.4167	1009.9	1219.8	298.93	916.6	1383.2	452.76	870.13	1396.7	150.21	860.78	1695.3	321.66	948.08	946.9	424.27	965.37	971.72	193.58	756.7	975.74	323.66	766.03	983.18	242.08	853.73	879.15	490.66	910.62	914.83	129.92	853.9	1031.6	463.78	896.18	1045.9	160.96	738.66	945.72	284.45	786.89	684.45	479.76	808.36	591.22	442.67	744.59	607.1	464.25	853.65	669.23	456.06	683.17	495.21	424.1	686.38	502.58	296.98	508.97	335.46	423.06	532.76	248.52	402.85	471.63	271.86	416	576.51	312.04	411.56	430.77	167.43	391.45	441.9	174.03	312.76	350.81	147.03	344.63	347.11	118.68	317.66	344.31	123.94	379.03	494.79	46.011	423.85	522.93	40.191	317.08	580.3	44.395	356.62	984.26	642.95	127.91	1084.1	600.82	154.97	1023.4	558.17	149.82	1051.4	683.33	134.02	1094.3	500.88	160.83	1098.5	496.99	291.6	1124.6	280.01	152.72	1222.4	229.32	168.05	1161	211.03	160.04	1187	297.34	161.34	1242.7	111.77	170.05	1250	126.34	257.02	1197.8	62.305	215.74	1218.3	37.477	250.25	1214.6	35.886	185.29	1377.2	92.397	150.42	1396.7	113.15	256.44	1440.5	147.83	210.9	818.66	1444.2	324.47	728.64	1237.3	319.8
342	1.4208	1016.7	1219.4	298.24	923.09	1382.9	451.87	876.74	1396.2	149.36	866.47	1694.8	320.79	954.74	946.28	424.01	972.45	971.56	193.3	763.58	975.32	322.84	773.07	982.94	241.33	860.07	878.46	489.99	918.08	914.93	129.42	860.51	1031	463.28	903.36	1045.7	160.47	745.63	945.35	283.52	792.96	684.04	479.13	814.44	590.66	442.36	750.6	606.68	463.59	859.79	668.64	455.75	689.18	494.83	423.61	692.81	501.97	296.42	513.51	336.75	422.52	536.47	249.55	402.75	475.55	273.5	415.58	580.82	312.64	411.31	433.69	169.45	391.27	444.92	175.7	312.65	353.77	150.33	344.27	349.56	122.1	317.25	346.72	127.37	378.62	495.42	46.438	423.79	523.44	40.047	317.18	580.46	44.312	356.53	991.4	643.09	127.95	1091.1	600.79	155.34	1030.3	558.22	149.98	1058.6	683.34	134.28	1101.2	500.92	161.1	1104.5	496.86	291.81	1129.8	279.91	152.78	1227.1	228.31	168.38	1165.6	210.59	160.05	1192.3	296.67	161.83	1245.6	110.79	169.92	1253.2	124.72	257.21	1199.7	62.976	215.89	1219.5	37.44	250.19	1215.5	36.158	185.22	1379.5	88.248	150.42	1399.5	108.45	256.24	1444.3	142.09	210.75	825.12	1443.7	323.59	735.41	1236.7	319.06
343	1.425	1023.5	1219.1	297.55	929.62	1382.7	450.97	883.36	1395.6	148.51	872.17	1694.3	319.91	961.43	945.69	423.75	979.56	971.45	193.02	770.49	974.95	322.01	780.13	982.76	240.57	866.48	877.79	489.31	925.57	915.1	128.9	867.17	1030.5	462.78	910.58	1045.5	160	752.63	945.03	282.59	799.14	683.62	478.48	820.65	590.11	442.04	756.75	606.26	462.91	866.04	668.07	455.41	695.34	494.42	423.12	699.39	501.32	295.87	518.21	338.05	421.96	540.32	250.6	402.65	479.63	275.16	415.14	585.28	313.24	411.06	436.76	171.5	391.08	448.1	177.38	312.53	356.94	153.7	343.89	352.18	125.61	316.82	349.31	130.91	378.19	496.08	46.894	423.72	523.95	39.91	317.27	580.62	44.223	356.43	998.52	643.3	127.97	1098	600.81	155.67	1037.2	558.34	150.11	1065.8	683.41	134.52	1108	501.01	161.35	1110.4	496.8	292.01	1135	279.9	152.89	1231.7	227.39	168.71	1170.1	210.25	160.1	1197.6	296.08	162.3	1248.5	109.91	169.8	1256.3	123.21	257.39	1201.6	63.751	216.05	1220.6	37.538	250.15	1216.5	36.547	185.17	1381.7	84.178	150.44	1402.3	103.84	256.07	1448	136.39	210.62	831.59	1443.3	322.71	742.21	1236.2	318.34
344	1.4292	1030.4	1218.9	296.85	936.17	1382.4	450.08	889.98	1395.1	147.66	877.88	1693.9	319.04	968.17	945.13	423.47	986.68	971.42	192.74	777.42	974.62	321.19	787.21	982.66	239.83	872.95	877.12	488.62	933.08	915.37	128.37	873.87	1029.9	462.27	917.83	1045.5	159.53	759.65	944.78	281.65	805.43	683.2	477.81	826.99	589.55	441.7	763.03	605.81	462.23	872.4	667.51	455.04	701.66	493.99	422.62	706.12	500.62	295.32	523.07	339.36	421.37	544.32	251.65	402.55	483.87	276.83	414.69	589.89	313.84	410.81	439.99	173.58	390.89	451.44	179.09	312.41	360.31	157.17	343.48	354.98	129.22	316.36	352.09	134.56	377.75	496.8	47.384	423.64	524.49	39.787	317.33	580.8	44.126	356.32	1005.6	643.58	127.96	1105	600.9	155.98	1044.1	558.53	150.21	1072.9	683.55	134.74	1114.8	501.17	161.58	1116.3	496.81	292.2	1140.2	279.99	153.03	1236.3	226.55	169.05	1174.6	210.01	160.19	1202.9	295.57	162.76	1251.4	109.13	169.7	1259.4	121.83	257.57	1203.5	64.605	216.22	1221.7	37.748	250.12	1217.4	37.031	185.14	1383.8	80.216	150.49	1404.9	99.327	255.93	1451.5	130.76	210.5	838.07	1442.9	321.84	749.03	1235.6	317.62
